<svg width="400" height="300" viewBox="0 0 400 300" xmlns="http://www.w3.org/2000/svg">
  <defs>
    <linearGradient id="windowGradient" x1="0%" y1="0%" x2="100%" y2="100%">
      <stop offset="0%" style="stop-color:#f8fafc;stop-opacity:1" />
      <stop offset="50%" style="stop-color:#e2e8f0;stop-opacity:1" />
      <stop offset="100%" style="stop-color:#cbd5e1;stop-opacity:1" />
    </linearGradient>
    <linearGradient id="frameGradient" x1="0%" y1="0%" x2="100%" y2="100%">
      <stop offset="0%" style="stop-color:#475569;stop-opacity:1" />
      <stop offset="50%" style="stop-color:#334155;stop-opacity:1" />
      <stop offset="100%" style="stop-color:#1e293b;stop-opacity:1" />
    </linearGradient>
    <filter id="shadow" x="-50%" y="-50%" width="200%" height="200%">
      <feDropShadow dx="0" dy="8" stdDeviation="12" flood-color="#000000" flood-opacity="0.15"/>
    </filter>
    <filter id="glassEffect" x="-50%" y="-50%" width="200%" height="200%">
      <feGaussianBlur in="SourceGraphic" stdDeviation="0.5"/>
      <feColorMatrix type="matrix" values="1 0 0 0 0  0 1 0 0 0  0 0 1 0 0  0 0 0 0.9 0"/>
    </filter>
  </defs>
  
  <!-- Window Frame -->
  <rect x="20" y="20" width="360" height="260" rx="8" ry="8" fill="url(#frameGradient)" filter="url(#shadow)"/>
  
  <!-- Glass Panels -->
  <rect x="35" y="35" width="165" height="115" rx="4" ry="4" fill="url(#windowGradient)" filter="url(#glassEffect)" opacity="0.9"/>
  <rect x="200" y="35" width="165" height="115" rx="4" ry="4" fill="url(#windowGradient)" filter="url(#glassEffect)" opacity="0.9"/>
  <rect x="35" y="150" width="165" height="115" rx="4" ry="4" fill="url(#windowGradient)" filter="url(#glassEffect)" opacity="0.9"/>
  <rect x="200" y="150" width="165" height="115" rx="4" ry="4" fill="url(#windowGradient)" filter="url(#glassEffect)" opacity="0.9"/>
  
  <!-- Window Dividers -->
  <rect x="195" y="35" width="10" height="230" rx="2" ry="2" fill="url(#frameGradient)"/>
  <rect x="35" y="145" width="330" height="10" rx="2" ry="2" fill="url(#frameGradient)"/>
  
  <!-- Glass Reflections -->
  <rect x="45" y="45" width="40" height="95" rx="2" ry="2" fill="#ffffff" opacity="0.3"/>
  <rect x="210" y="45" width="40" height="95" rx="2" ry="2" fill="#ffffff" opacity="0.3"/>
  <rect x="45" y="160" width="40" height="95" rx="2" ry="2" fill="#ffffff" opacity="0.3"/>
  <rect x="210" y="160" width="40" height="95" rx="2" ry="2" fill="#ffffff" opacity="0.3"/>
  
  <!-- Handle -->
  <circle cx="340" cy="150" r="8" fill="url(#frameGradient)" filter="url(#shadow)"/>
  <circle cx="340" cy="150" r="4" fill="#94a3b8"/>
</svg>