<svg width="800" height="600" viewBox="0 0 800 600" xmlns="http://www.w3.org/2000/svg">
  <defs>
    <!-- Luxury gradients -->
    <linearGradient id="luxuryGold" x1="0%" y1="0%" x2="100%" y2="100%">
      <stop offset="0%" stop-color="#ffd700" stop-opacity="0.3"/>
      <stop offset="50%" stop-color="#ffed4e" stop-opacity="0.2"/>
      <stop offset="100%" stop-color="#fbbf24" stop-opacity="0.1"/>
    </linearGradient>
    
    <linearGradient id="luxuryBlue" x1="0%" y1="0%" x2="100%" y2="100%">
      <stop offset="0%" stop-color="#3b82f6" stop-opacity="0.2"/>
      <stop offset="50%" stop-color="#6366f1" stop-opacity="0.15"/>
      <stop offset="100%" stop-color="#8b5cf6" stop-opacity="0.1"/>
    </linearGradient>
    
    <radialGradient id="luxuryRadial" cx="50%" cy="50%" r="50%">
      <stop offset="0%" stop-color="#ffffff" stop-opacity="0.4"/>
      <stop offset="70%" stop-color="#f8fafc" stop-opacity="0.2"/>
      <stop offset="100%" stop-color="#e2e8f0" stop-opacity="0.1"/>
    </radialGradient>
    
    <!-- Elegant patterns -->
    <pattern id="elegantGrid" x="0" y="0" width="40" height="40" patternUnits="userSpaceOnUse">
      <rect width="40" height="40" fill="none"/>
      <circle cx="20" cy="20" r="1" fill="#3b82f6" opacity="0.1"/>
      <line x1="0" y1="20" x2="40" y2="20" stroke="#6366f1" stroke-width="0.5" opacity="0.05"/>
      <line x1="20" y1="0" x2="20" y2="40" stroke="#6366f1" stroke-width="0.5" opacity="0.05"/>
    </pattern>
    
    <!-- Luxury ornament -->
    <g id="ornament">
      <circle cx="0" cy="0" r="8" fill="url(#luxuryGold)" opacity="0.6"/>
      <circle cx="0" cy="0" r="4" fill="url(#luxuryBlue)" opacity="0.8"/>
      <circle cx="0" cy="0" r="2" fill="#ffffff" opacity="0.9"/>
    </g>
  </defs>
  
  <!-- Background -->
  <rect width="800" height="600" fill="url(#luxuryRadial)"/>
  
  <!-- Grid pattern -->
  <rect width="800" height="600" fill="url(#elegantGrid)"/>
  
  <!-- Flowing curves -->
  <path d="M0,300 Q200,200 400,300 T800,300" stroke="url(#luxuryGold)" stroke-width="2" fill="none" opacity="0.3"/>
  <path d="M0,350 Q300,250 600,350 T800,350" stroke="url(#luxuryBlue)" stroke-width="1.5" fill="none" opacity="0.4"/>
  <path d="M0,250 Q150,150 300,250 T600,250 T800,250" stroke="url(#luxuryGold)" stroke-width="1" fill="none" opacity="0.2"/>
  
  <!-- Elegant geometric shapes -->
  <polygon points="100,100 150,80 200,100 180,150 120,150" fill="url(#luxuryBlue)" opacity="0.15"/>
  <polygon points="600,450 650,430 700,450 680,500 620,500" fill="url(#luxuryGold)" opacity="0.2"/>
  
  <!-- Luxury ornaments -->
  <use href="#ornament" transform="translate(150,150)"/>
  <use href="#ornament" transform="translate(650,100)"/>
  <use href="#ornament" transform="translate(100,450)"/>
  <use href="#ornament" transform="translate(700,500)"/>
  
  <!-- Subtle light rays -->
  <g opacity="0.1">
    <line x1="400" y1="0" x2="350" y2="600" stroke="url(#luxuryGold)" stroke-width="1"/>
    <line x1="450" y1="0" x2="400" y2="600" stroke="url(#luxuryBlue)" stroke-width="0.8"/>
    <line x1="500" y1="0" x2="450" y2="600" stroke="url(#luxuryGold)" stroke-width="0.6"/>
  </g>
  
  <!-- Floating particles -->
  <circle cx="200" cy="180" r="3" fill="url(#luxuryGold)" opacity="0.4">
    <animate attributeName="cy" values="180;160;180" dur="4s" repeatCount="indefinite"/>
    <animate attributeName="opacity" values="0.4;0.8;0.4" dur="4s" repeatCount="indefinite"/>
  </circle>
  
  <circle cx="580" cy="320" r="2" fill="url(#luxuryBlue)" opacity="0.5">
    <animate attributeName="cy" values="320;300;320" dur="5s" repeatCount="indefinite"/>
    <animate attributeName="opacity" values="0.5;0.9;0.5" dur="5s" repeatCount="indefinite"/>
  </circle>
  
  <circle cx="300" cy="480" r="2.5" fill="url(#luxuryGold)" opacity="0.3">
    <animate attributeName="cy" values="480;460;480" dur="6s" repeatCount="indefinite"/>
    <animate attributeName="opacity" values="0.3;0.7;0.3" dur="6s" repeatCount="indefinite"/>
  </circle>
</svg>