<svg width="300" height="400" viewBox="0 0 300 400" xmlns="http://www.w3.org/2000/svg">
  <defs>
    <linearGradient id="doorGradient" x1="0%" y1="0%" x2="100%" y2="100%">
      <stop offset="0%" style="stop-color:#8b5a3c;stop-opacity:1" />
      <stop offset="50%" style="stop-color:#6d4c41;stop-opacity:1" />
      <stop offset="100%" style="stop-color:#5d4037;stop-opacity:1" />
    </linearGradient>
    <linearGradient id="frameGradient" x1="0%" y1="0%" x2="100%" y2="100%">
      <stop offset="0%" style="stop-color:#475569;stop-opacity:1" />
      <stop offset="50%" style="stop-color:#334155;stop-opacity:1" />
      <stop offset="100%" style="stop-color:#1e293b;stop-opacity:1" />
    </linearGradient>
    <linearGradient id="glassGradient" x1="0%" y1="0%" x2="100%" y2="100%">
      <stop offset="0%" style="stop-color:#e0f2fe;stop-opacity:0.8" />
      <stop offset="50%" style="stop-color:#b3e5fc;stop-opacity:0.6" />
      <stop offset="100%" style="stop-color:#81d4fa;stop-opacity:0.4" />
    </linearGradient>
    <filter id="shadow" x="-50%" y="-50%" width="200%" height="200%">
      <feDropShadow dx="0" dy="12" stdDeviation="16" flood-color="#000000" flood-opacity="0.2"/>
    </filter>
    <filter id="woodTexture" x="-50%" y="-50%" width="200%" height="200%">
      <feTurbulence baseFrequency="0.02" numOctaves="4" result="noise"/>
      <feColorMatrix in="noise" type="saturate" values="0"/>
      <feComponentTransfer>
        <feFuncA type="discrete" tableValues="0.1 0.2 0.3 0.2 0.1"/>
      </feComponentTransfer>
      <feComposite operator="overlay" in2="SourceGraphic"/>
    </filter>
  </defs>
  
  <!-- Door Frame -->
  <rect x="10" y="10" width="280" height="380" rx="12" ry="12" fill="url(#frameGradient)" filter="url(#shadow)"/>
  
  <!-- Door Panel -->
  <rect x="25" y="25" width="250" height="350" rx="8" ry="8" fill="url(#doorGradient)" filter="url(#woodTexture)"/>
  
  <!-- Door Panels (Decorative) -->
  <rect x="40" y="40" width="220" height="80" rx="6" ry="6" fill="none" stroke="#4a2c2a" stroke-width="3" opacity="0.6"/>
  <rect x="40" y="140" width="220" height="100" rx="6" ry="6" fill="none" stroke="#4a2c2a" stroke-width="3" opacity="0.6"/>
  
  <!-- Glass Panel -->
  <rect x="60" y="260" width="180" height="80" rx="8" ry="8" fill="url(#glassGradient)" stroke="#4a2c2a" stroke-width="2"/>
  
  <!-- Glass Reflection -->
  <rect x="70" y="270" width="50" height="60" rx="4" ry="4" fill="#ffffff" opacity="0.4"/>
  
  <!-- Door Handle -->
  <ellipse cx="230" cy="200" rx="12" ry="8" fill="url(#frameGradient)" filter="url(#shadow)"/>
  <ellipse cx="230" cy="200" rx="8" ry="5" fill="#ffd700"/>
  <ellipse cx="230" cy="200" rx="4" ry="3" fill="#ffecb3"/>
  
  <!-- Lock -->
  <rect x="225" y="210" width="10" height="15" rx="2" ry="2" fill="url(#frameGradient)"/>
  <circle cx="230" cy="217" r="2" fill="#333"/>
  
  <!-- Wood Grain Details -->
  <path d="M40 60 Q150 65 260 60" stroke="#4a2c2a" stroke-width="1" opacity="0.3" fill="none"/>
  <path d="M40 100 Q150 105 260 100" stroke="#4a2c2a" stroke-width="1" opacity="0.3" fill="none"/>
  <path d="M40 180 Q150 185 260 180" stroke="#4a2c2a" stroke-width="1" opacity="0.3" fill="none"/>
  <path d="M40 220 Q150 225 260 220" stroke="#4a2c2a" stroke-width="1" opacity="0.3" fill="none"/>
</svg>