<svg width="400" height="300" xmlns="http://www.w3.org/2000/svg">
  <defs>
    <linearGradient id="bg" x1="0%" y1="0%" x2="100%" y2="100%">
      <stop offset="0%" style="stop-color:#ecfdf5;stop-opacity:1" />
      <stop offset="100%" style="stop-color:#d1fae5;stop-opacity:1" />
    </linearGradient>
    <linearGradient id="glass" x1="0%" y1="0%" x2="100%" y2="100%">
      <stop offset="0%" style="stop-color:#ffffff;stop-opacity:0.9" />
      <stop offset="100%" style="stop-color:#f0f9ff;stop-opacity:0.7" />
    </linearGradient>
  </defs>
  <rect width="100%" height="100%" fill="url(#bg)"/>
  
  <!-- Building outline -->
  <rect x="100" y="80" width="200" height="180" fill="#fefefe" stroke="#64748b" stroke-width="2"/>
  
  <!-- New aluminum doors with glass -->
  <rect x="130" y="180" width="50" height="80" fill="url(#glass)" stroke="#059669" stroke-width="3"/>
  <rect x="135" y="185" width="40" height="70" fill="url(#glass)" stroke="#047857" stroke-width="1"/>
  
  <rect x="220" y="180" width="50" height="80" fill="url(#glass)" stroke="#059669" stroke-width="3"/>
  <rect x="225" y="185" width="40" height="70" fill="url(#glass)" stroke="#047857" stroke-width="1"/>
  
  <!-- New windows with better frames -->
  <rect x="120" y="110" width="40" height="40" fill="#ffffff" stroke="#059669" stroke-width="3"/>
  <line x1="140" y1="110" x2="140" y2="150" stroke="#047857" stroke-width="2"/>
  <line x1="120" y1="130" x2="160" y2="130" stroke="#047857" stroke-width="2"/>
  
  <rect x="180" y="110" width="40" height="40" fill="#ffffff" stroke="#059669" stroke-width="3"/>
  <line x1="200" y1="110" x2="200" y2="150" stroke="#047857" stroke-width="2"/>
  <line x1="180" y1="130" x2="220" y2="130" stroke="#047857" stroke-width="2"/>
  
  <rect x="240" y="110" width="40" height="40" fill="#ffffff" stroke="#059669" stroke-width="3"/>
  <line x1="260" y1="110" x2="260" y2="150" stroke="#047857" stroke-width="2"/>
  <line x1="240" y1="130" x2="280" y2="130" stroke="#047857" stroke-width="2"/>
  
  <!-- Modern balcony -->
  <rect x="110" y="170" width="180" height="10" fill="#047857" stroke="#065f46" stroke-width="1"/>
  
  <!-- Integrated blinds indication -->
  <rect x="132" y="182" width="46" height="3" fill="#10b981" opacity="0.7"/>
  <rect x="222" y="182" width="46" height="3" fill="#10b981" opacity="0.7"/>
  
  <!-- Text -->
  <text x="200" y="280" font-family="Arial, sans-serif" font-size="14" fill="#047857" text-anchor="middle" font-weight="bold">Apartament Herastrau - După</text>
</svg>