<svg width="400" height="300" xmlns="http://www.w3.org/2000/svg">
  <defs>
    <linearGradient id="bg" x1="0%" y1="0%" x2="100%" y2="100%">
      <stop offset="0%" style="stop-color:#dbeafe;stop-opacity:1" />
      <stop offset="100%" style="stop-color:#bfdbfe;stop-opacity:1" />
    </linearGradient>
  </defs>
  <rect width="100%" height="100%" fill="url(#bg)"/>
  
  <!-- House outline -->
  <rect x="50" y="120" width="300" height="150" fill="#f8fafc" stroke="#64748b" stroke-width="2"/>
  
  <!-- Roof -->
  <polygon points="40,120 200,60 360,120" fill="#475569" stroke="#334155" stroke-width="2"/>
  
  <!-- New PVC windows -->
  <rect x="80" y="150" width="60" height="60" fill="#ffffff" stroke="#1e40af" stroke-width="3"/>
  <line x1="110" y1="150" x2="110" y2="210" stroke="#1e40af" stroke-width="2"/>
  <line x1="80" y1="180" x2="140" y2="180" stroke="#1e40af" stroke-width="2"/>
  
  <rect x="170" y="150" width="60" height="60" fill="#ffffff" stroke="#1e40af" stroke-width="3"/>
  <line x1="200" y1="150" x2="200" y2="210" stroke="#1e40af" stroke-width="2"/>
  <line x1="170" y1="180" x2="230" y2="180" stroke="#1e40af" stroke-width="2"/>
  
  <rect x="260" y="150" width="60" height="60" fill="#ffffff" stroke="#1e40af" stroke-width="3"/>
  <line x1="290" y1="150" x2="290" y2="210" stroke="#1e40af" stroke-width="2"/>
  <line x1="260" y1="180" x2="320" y2="180" stroke="#1e40af" stroke-width="2"/>
  
  <!-- New door -->
  <rect x="170" y="220" width="60" height="50" fill="#1e40af" stroke="#1e3a8a" stroke-width="2"/>
  <circle cx="220" cy="245" r="2" fill="#fbbf24"/>
  
  <!-- Text -->
  <text x="200" y="290" font-family="Arial, sans-serif" font-size="14" fill="#1e40af" text-anchor="middle" font-weight="bold">Vila Pipera - După</text>
</svg>